<svg xmlns="http://www.w3.org/2000/svg" viewBox="0 0 116.94 116.94"><defs><style>.cls-2{fill:none;stroke:#fff;stroke-linecap:round;stroke-linejoin:round;stroke-width:2px}</style></defs><g id="Layer_2" data-name="Layer 2"><g id="Layer_1-2" data-name="Layer 1"><circle cx="58.47" cy="58.47" r="58.47" fill="#ff5100"/><path class="cls-2" d="M80 33h-1.64v2.42a3.23 3.23 0 11-6.45 0V33H45v2.42a3.23 3.23 0 11-6.45 0V33H37a8.06 8.06 0 00-8.06 8.07v6.71H88v-6.71A8.07 8.07 0 0080 33zM28.91 47.78v30.91A8.06 8.06 0 0037 86.76h43a8.07 8.07 0 008-8.07V47.78z"/><path class="cls-2" d="M41.81 38.65A3.23 3.23 0 0045 35.42v-4.84a3.23 3.23 0 00-6.45 0v4.84a3.23 3.23 0 003.26 3.23zm33.33 0a3.23 3.23 0 003.22-3.23v-4.84a3.23 3.23 0 00-6.45 0v4.84a3.23 3.23 0 003.23 3.23zM70 58.85a3.3 3.3 0 00-2.37-1 3.33 3.33 0 00-2.37 1l-9.74 9.74-3.92-3.93a3.36 3.36 0 00-4.74 0 3.36 3.36 0 00-1 2.37 3.33 3.33 0 001 2.37l6.29 6.3a3.36 3.36 0 002.37 1 3.33 3.33 0 002.37-1L70 63.58a3.32 3.32 0 000-4.73z"/></g></g></svg>