<svg xmlns="http://www.w3.org/2000/svg" viewBox="0 0 346.67 215.53"><defs><style>.cls-1{fill:#415364;}.cls-2{fill:#fff;}</style></defs><g id="Layer_2" data-name="Layer 2"><g id="Layer_1-2" data-name="Layer 1"><path class="cls-1" d="M0,158.34C0,136.07,16.86,121,39,121c17.4,0,26.7,9.84,31.45,19.36l-16,7.56A17.3,17.3,0,0,0,39,137.48c-11.79,0-20.11,9.08-20.11,20.86S27.24,179.2,39,179.2a17.3,17.3,0,0,0,15.45-10.48l16,7.57c-4.64,9.29-14.05,19.35-31.45,19.35C16.86,195.64,0,180.5,0,158.34Z"/><path class="cls-1" d="M71.77,168.18c0-14.7,10.7-27.35,28.43-27.35,18,0,28.54,12.65,28.54,27.35s-10.59,27.46-28.54,27.46C82.47,195.64,71.77,182.88,71.77,168.18Zm39.89,0c0-6.92-4.11-12.65-11.46-12.65S89,161.26,89,168.18s4,12.75,11.24,12.75S111.66,175.21,111.66,168.18Z"/><path class="cls-1" d="M168.38,194.34v-6.27c-3.24,3.67-9.3,7.57-18,7.57-11.9,0-17.19-6.71-17.19-16.33V142.13h16.64V172.5c0,6.27,3.25,8.43,8.65,8.43a12.47,12.47,0,0,0,9.95-5.08V142.13H185v52.21Z"/><path class="cls-1" d="M228.12,194.34V164.18c0-6.38-3.35-8.65-8.54-8.65a12.88,12.88,0,0,0-10.16,5.08v33.73H192.77V142.13h16.65v6.37c3.14-3.67,9.3-7.67,18.05-7.67,11.9,0,17.3,6.92,17.3,16.54v37Z"/><path class="cls-1" d="M257.52,180.29V156.61h-8.65V142.13h8.65V127.86h16.54v14.27h10.59v14.48H274.06v19c0,3,1.73,5.29,4.65,5.29,1.84,0,3.67-.64,4.21-1.29l3.25,12.54c-2.06,1.94-6.16,3.46-12.33,3.46C263.25,195.64,257.52,190.34,257.52,180.29Z"/><path class="cls-1" d="M296.29,199.85a9.17,9.17,0,0,0,4.11,1c3.78,0,6.16-.76,7-2.92l1.19-2.81-20.76-53h17.51l11.79,33.08,11.89-33.08h17.62L323.1,201.8c-4.21,11-12.11,13.51-22.05,13.73a33.84,33.84,0,0,1-7.14-.87Z"/><path class="cls-1" d="M36,83.79C36,61.65,52.77,46.7,74.81,46.7c17.31,0,26.55,9.79,31.28,19.25L90.18,73.47A17.21,17.21,0,0,0,74.81,63c-11.72,0-20,9-20,20.75s8.27,20.75,20,20.75A17.21,17.21,0,0,0,90.18,94.11l15.91,7.52c-4.62,9.25-14,19.25-31.28,19.25C52.77,120.88,36,105.83,36,83.79Z"/><path class="cls-1" d="M109.28,119.59V47.89h16.55v71.7Z"/><path class="cls-1" d="M166.57,119.59v-6.24c-3.23,3.66-9.25,7.53-17.95,7.53-11.83,0-17.09-6.67-17.09-16.23v-37h16.55v30.2c0,6.24,3.23,8.39,8.6,8.39a12.41,12.41,0,0,0,9.89-5.05V67.67h16.55v51.92Z"/><path class="cls-1" d="M190.31,119.59V47.89h16.55v25.9a19.16,19.16,0,0,1,15.38-7.42c12.89,0,22.89,10.22,22.89,27.2,0,17.63-10.1,27.31-22.89,27.31a19.86,19.86,0,0,1-15.38-7.31v6Zm26.44-13.33c6.56,0,11.51-4.84,11.51-12.69S223.31,81,216.75,81a13.25,13.25,0,0,0-9.89,4.74v15.9C208.91,104.43,213.21,106.26,216.75,106.26Z"/><path class="cls-2" d="M308.36,91.54a8.45,8.45,0,0,1,8.39-8.71,8.68,8.68,0,0,1,.08,17.36A8.45,8.45,0,0,1,308.36,91.54Z"/><path class="cls-1" d="M292.89,83.47c10-9.32,11.62-19.95,4.72-28.41a18.23,18.23,0,0,0-32,8c-1.43,7,.86,13.09,5.69,18.16-12.58,12.45-15.1,23-7.76,32.22a22,22,0,0,0,13.85,8c8.52,1.47,16.17-.55,22.72-6.58,1.24,1.47,2.2,2.81,3.36,3.94s2.57,3,4,3.08c5.23.36,10.51.14,16.76.14Zm-9.07-22.38a5.91,5.91,0,0,1-.51,11.79,6.11,6.11,0,0,1-5.61-6A5.94,5.94,0,0,1,283.82,61.09Zm-4,46c-2.1-.85-4.63-3-5.12-5-1.18-4.83,2.74-7.45,6.29-10.53l10,12.24C287.72,107,284,108.73,279.86,107Z"/><path class="cls-1" d="M40.25.49H50.61c6.28,0,10.6,3.22,10.6,8.73V9.3c0,6-5.18,9.09-11.13,9.09H42.37V29H40.25Zm10,16c5.3,0,8.89-2.78,8.89-7V9.34c0-4.53-3.51-6.89-8.65-6.89H42.37v14Z"/><path class="cls-1" d="M66.22,14.85v-.09C66.22,7,72,0,80.62,0S94.94,6.89,94.94,14.68v.08c0,7.79-5.75,14.77-14.4,14.77S66.22,22.64,66.22,14.85Zm26.51,0v-.09c0-7-5.13-12.84-12.19-12.84S68.43,7.63,68.43,14.68v.08c0,7.06,5.14,12.85,12.19,12.85S92.73,21.9,92.73,14.85Z"/><path class="cls-1" d="M98.52.49h2.37l9,25.41L118.22.41h1.63l8.37,25.49,9-25.41h2.2L129,29.24h-1.71L119,4.45,110.6,29.24h-1.72Z"/><path class="cls-1" d="M145.67.49H166v2H147.79V13.66h16.35v2H147.79V27.08h18.39v2H145.67Z"/><path class="cls-1" d="M173,.49h12a11.28,11.28,0,0,1,8,2.81,7.58,7.58,0,0,1,2.16,5.31v.08c0,4.77-3.55,7.5-8.36,8.15L196.24,29h-2.69l-9.1-11.83h-9.34V29H173Zm11.75,14.8c4.77,0,8.32-2.4,8.32-6.52V8.69c0-3.84-3-6.24-8.2-6.24h-9.75V15.29Z"/><path class="cls-1" d="M202.48.49h20.31v2H204.6V13.66H221v2H204.6V27.08H223v2H202.48Z"/><path class="cls-1" d="M229.8.49h9.5c9,0,15.18,6.16,15.18,14.19v.08c0,8-6.2,14.28-15.18,14.28h-9.5Zm2.12,2V27.08h7.38c8,0,13-5.42,13-12.23v-.09c0-6.77-5-12.31-13-12.31Z"/><path class="cls-1" d="M273.92.49h11.79c3.22,0,5.83.94,7.42,2.53A6.12,6.12,0,0,1,295,7.5v.09a7.06,7.06,0,0,1-4.85,6.77c3.42.89,6.44,2.85,6.44,6.81v.08c0,4.77-4.08,7.79-10.24,7.79h-12.4Zm18.89,7.22c0-3.14-2.57-5.26-7.14-5.26h-9.62V13.66h9.42c4.28,0,7.34-2.08,7.34-5.87Zm-7.1,7.91h-9.66V27.08h10.36c4.89,0,8-2.24,8-5.83v-.08C294.4,17.66,291.34,15.62,285.71,15.62Z"/><path class="cls-1" d="M311.44,17.74,299.21.49h2.65l10.69,15.33L323.27.49h2.53L313.57,17.7V29h-2.13Z"/></g></g></svg>