<svg xmlns="http://www.w3.org/2000/svg" viewBox="0 0 813.35 74.77"><defs><style>.cls-1{fill:#415364;}.cls-2{fill:#fff;}</style></defs><g id="Layer_2" data-name="Layer 2"><g id="Layer_1-2" data-name="Layer 1"><path class="cls-1" d="M539,29.51C539,11.89,552.37,0,569.9,0,583.67,0,591,7.78,594.8,15.31l-12.66,6A13.72,13.72,0,0,0,569.9,13C560.58,13,554,20.19,554,29.51S560.58,46,569.9,46a13.71,13.71,0,0,0,12.24-8.3l12.66,6C591.12,51.07,583.67,59,569.9,59,552.37,59,539,47.05,539,29.51Z"/><path class="cls-1" d="M595.81,37.3c0-11.64,8.47-21.65,22.5-21.65,14.2,0,22.59,10,22.59,21.65S632.51,59,618.31,59C604.28,59,595.81,48.93,595.81,37.3Zm31.57,0c0-5.48-3.25-10-9.07-10s-8.89,4.53-8.89,10,3.16,10.09,8.89,10.09S627.38,42.86,627.38,37.3Z"/><path class="cls-1" d="M672.26,58V53A18.8,18.8,0,0,1,658,59c-9.41,0-13.61-5.31-13.61-12.92V16.68h13.18v24c0,5,2.56,6.67,6.84,6.67a9.85,9.85,0,0,0,7.87-4V16.68h13.18V58Z"/><path class="cls-1" d="M719.54,58V34.13c0-5.05-2.65-6.84-6.76-6.84a10.19,10.19,0,0,0-8,4V58H691.56V16.68h13.18v5.05A18.67,18.67,0,0,1,719,15.65c9.42,0,13.69,5.48,13.69,13.09V58Z"/><path class="cls-1" d="M742.8,46.88V28.14H736V16.68h6.84V5.39h13.09V16.68h8.38V28.14h-8.38V43.2c0,2.4,1.37,4.19,3.68,4.19a5.11,5.11,0,0,0,3.33-1l2.57,9.92c-1.62,1.54-4.88,2.74-9.75,2.74C747.33,59,742.8,54.83,742.8,46.88Z"/><path class="cls-1" d="M773.48,62.36a7.32,7.32,0,0,0,3.25.77c3,0,4.88-.6,5.56-2.31l.94-2.22L766.81,16.68h13.86L790,42.86l9.41-26.18h14L794.7,63.9c-3.34,8.73-9.58,10.69-17.45,10.87a26.64,26.64,0,0,1-5.65-.69Z"/><path class="cls-1" d="M301.15,29.6c0-17.52,13.27-29.35,30.71-29.35,13.7,0,21,7.74,24.76,15.23L344,21.43a13.63,13.63,0,0,0-12.17-8.25c-9.27,0-15.82,7.15-15.82,16.42S322.59,46,331.86,46A13.65,13.65,0,0,0,344,37.77l12.59,5.95C353,51,345.56,59,331.86,59,314.42,59,301.15,47,301.15,29.6Z"/><path class="cls-1" d="M359.14,57.93V1.19h13.1V57.93Z"/><path class="cls-1" d="M404.47,57.93V53a18.68,18.68,0,0,1-14.2,6c-9.36,0-13.53-5.28-13.53-12.85V16.84h13.1v23.9c0,4.94,2.55,6.64,6.81,6.64a9.79,9.79,0,0,0,7.82-4V16.84h13.1V57.93Z"/><path class="cls-1" d="M423.26,57.93V1.19h13.1v20.5a15.14,15.14,0,0,1,12.16-5.87c10.21,0,18.12,8.08,18.12,21.52,0,13.95-8,21.61-18.12,21.61a15.67,15.67,0,0,1-12.16-5.79v4.77Zm20.92-10.55c5.19,0,9.1-3.83,9.1-10s-3.91-10-9.1-10a10.44,10.44,0,0,0-7.82,3.74V43.72A10.37,10.37,0,0,0,444.18,47.38Z"/><path class="cls-2" d="M516.67,35.73a6.69,6.69,0,0,1,6.64-6.89,6.87,6.87,0,0,1,.06,13.73A6.67,6.67,0,0,1,516.67,35.73Z"/><path class="cls-1" d="M504.43,29.35c7.88-7.38,9.19-15.79,3.73-22.48a14.43,14.43,0,0,0-25.34,6.3c-1.13,5.58.68,10.36,4.5,14.37-10,9.85-11.95,18.22-6.14,25.5a17.37,17.37,0,0,0,11,6.34,20.17,20.17,0,0,0,18-5.2c1,1.16,1.74,2.22,2.66,3.12s2,2.35,3.13,2.43c4.14.29,8.32.12,13.26.12Zm-7.18-17.71a4.67,4.67,0,0,1-.4,9.32,4.83,4.83,0,0,1-4.44-4.72A4.7,4.7,0,0,1,497.25,11.64ZM494.12,48c-1.66-.68-3.67-2.37-4.05-4-.93-3.82,2.16-5.89,5-8.33,2.78,3.4,5.3,6.47,7.92,9.69C500.34,47.94,497.42,49.33,494.12,48Z"/><path class="cls-1" d="M0,17.93H10.36c6.28,0,10.6,3.22,10.6,8.73v.08c0,6-5.18,9.1-11.13,9.1H2.12V46.48H0Zm10,16c5.3,0,8.89-2.77,8.89-7v-.08c0-4.52-3.5-6.89-8.64-6.89H2.12v14Z"/><path class="cls-1" d="M26,32.29v-.08c0-7.79,5.75-14.77,14.4-14.77s14.31,6.9,14.31,14.69v.08C54.69,40,48.94,47,40.29,47S26,40.08,26,32.29Zm26.51,0v-.08c0-7.06-5.14-12.85-12.2-12.85S28.18,25.07,28.18,32.13v.08c0,7,5.14,12.84,12.2,12.84S52.49,39.34,52.49,32.29Z"/><path class="cls-1" d="M58.28,17.93h2.36l9,25.41L78,17.85h1.63L88,43.34l9-25.41h2.2L88.78,46.69H87.07l-8.36-24.8-8.36,24.8H68.64Z"/><path class="cls-1" d="M105.42,17.93h20.31v2H107.54V31.11H123.9v2H107.54V44.52h18.4v2H105.42Z"/><path class="cls-1" d="M132.74,17.93h12c3.5,0,6.32,1.1,8,2.82a7.49,7.49,0,0,1,2.16,5.3v.08c0,4.77-3.55,7.5-8.36,8.16L156,46.48H153.3l-9.09-11.83h-9.34V46.48h-2.13Zm11.75,14.81c4.77,0,8.32-2.41,8.32-6.53v-.08c0-3.83-3-6.24-8.2-6.24h-9.74V32.74Z"/><path class="cls-1" d="M162.23,17.93h20.31v2H164.35V31.11h16.36v2H164.35V44.52h18.39v2H162.23Z"/><path class="cls-1" d="M189.55,17.93h9.51c9,0,15.17,6.16,15.17,14.2v.08c0,8-6.2,14.27-15.17,14.27h-9.51Zm2.12,2V44.52h7.39c7.95,0,13-5.42,13-12.23v-.08c0-6.77-5-12.32-13-12.32Z"/><path class="cls-1" d="M233.68,17.93h11.79c3.22,0,5.83.94,7.42,2.53A6.15,6.15,0,0,1,254.72,25V25a7.05,7.05,0,0,1-4.85,6.77c3.43.9,6.44,2.85,6.44,6.81v.08c0,4.77-4.07,7.79-10.23,7.79h-12.4Zm18.88,7.22c0-3.14-2.57-5.26-7.14-5.26H235.8V31.11h9.42c4.28,0,7.34-2.08,7.34-5.88Zm-7.09,7.91H235.8V44.52h10.36c4.89,0,8-2.24,8-5.83v-.08C254.15,35.1,251.09,33.06,245.47,33.06Z"/><path class="cls-1" d="M271.2,35.18,259,17.93h2.65L272.3,33.27,283,17.93h2.52L273.32,35.14V46.48H271.2Z"/></g></g></svg>