<svg version="1.1" id="Layer_1" xmlns="http://www.w3.org/2000/svg" x="0" y="0" viewBox="0 0 248.9 339.4" xml:space="preserve"><style>.st0{fill:#fff}</style><linearGradient id="SVGID_1_" gradientUnits="userSpaceOnUse" x1="-17.228" y1="382.389" x2="-16.521" y2="381.682"><stop offset="0" stop-color="#1da238"/><stop offset=".983" stop-color="#24391d"/></linearGradient><path class="st0" d="M118.9 207l2.4-1.7L86.5 55.2l-2.6.3zm9.3-9.6l2.2-2.5L97.7 53.8l-2.6.3zm9.1-10.5l2.2-2.5-30.6-132-2.7.3zm9.1-10.4l2.2-2.5-28.5-123-2.7.3zm9-10.4l2.2-2.5-26.3-114-2.7.4zm9.1-10.4l2.2-2.5-24.2-105-2.7.4zm9.2-10.6l2.2-2.5-22.1-95.8-2.7.4zm9.1-10.4l2.2-2.5-20.1-86.7-2.7.3zm-8.2-85.6l17.2 75.2 2.2-2.5-17.9-77.7zm13-5.3l-2.7.2 16.1 69.8 2.2-2.5zM64.1 58l-2.7.3 36.1 156 2.4-1.5L64.1 58zm11.2-1.4l-2.7.3 35.3 152.3c.9-.3 1.7-.5 2.6-.8L75.3 56.6zm163.1-38.7c-.5 9.4-8.5 16.6-17.9 16.1-9.4-.5-16.6-8.5-16.1-17.9.5-9.4 8.5-16.6 17.9-16.1 9.4.5 16.6 8.5 16.1 17.9z"/><path class="st0" d="M50.1 29.1l-1.3.2c12.9-2.5 17.4 8.8 18.3 11.3.9 2.5 7.6 12 18.6 12.5 11 .5 14.4-.4 15.7-.6l69.9-9.4v6.2l-.1 3.3c0 .8-.7 1.5-1.6 1.5-.8 0-1.5-.7-1.5-1.6l.1-2.6L83.1 66c-.7.2-1.4.4-2.2.5l-1.4.2-1.8.3v-.1l-1.5.2c-7.7 1.1-17.1 7.4-31.9-7.1-6.5-6.4-6.3-15.4-6.3-15.4-1.1-7.5 4.3-14.4 12.1-15.5zm70.5 248.4c-2.5 0-4.9-.2-7.3-.5l-2 8.2c3.1.8 6.3 1.3 9.7 1.3 3.6 0 7.1-.5 10.4-1.5l-2.2-8.2c-2.9.5-5.7.7-8.6.7zm-24.9-8.9c-1.6-3-2.7-5.2-3.2-9.7l-.1-.6-.2-1.7h.1c-.1-2.5-.2-6.5-.2-7.7 0-1.9.1-5.7.3-8.4h-.1l.2-1.7.1-.5c.7-4.6 2-7.1 3.8-10.6.3-.5.5-1 .8-1.6l-3.6-3.6c-6.5 6.8-10.5 16-10.5 26.1 0 10.1 4 19.2 10.4 26l3.4-3.5c-.4-.9-.8-1.7-1.2-2.5zm2.8 4l-3.5 3.6c4 3.8 8.9 6.7 14.3 8.5l2-7.9c-4.4-.9-8.7-2.3-12.8-4.2zm44.6-47.6l3.8-3.7c-3.9-3.7-8.7-6.7-13.9-8.4l-2.2 8c4.2.9 8.4 2.2 12.3 4.1zm-31.8-4.2l-2-8c-5.4 1.7-10.2 4.6-14.3 8.4l3.6 3.6c4.2-1.9 8.4-3.3 12.7-4zm34 7.2c1.8 3.5 3.1 6.1 3.8 10.7l.1.5.2 1.8h-.1c.2 2.6.3 6.4.3 8.1 0 1.2-.1 5-.2 7.4h.1l-.2 1.7-.1.5c-.5 4.5-1.6 6.7-3.2 9.7-.4.7-.8 1.6-1.3 2.5l3.6 3.6c6.3-6.7 10.1-15.8 10.1-25.7 0-10-3.9-19.1-10.3-25.9l-3.8 3.7c.5.4.8.9 1 1.4zm-24.7-8.1c2.8 0 5.5.2 8.2.7l2.3-8.3c-3.3-.9-6.7-1.4-10.2-1.4-3.3 0-6.6.4-9.7 1.3l2 8.3c2.5-.4 4.9-.6 7.4-.6zm10.4 56.5l2.2 7.9c5.3-1.8 10-4.8 14-8.6l-3.7-3.6c-4.1 2.1-8.2 3.5-12.5 4.3z"/><path class="st0" d="M97.4 267.7c.5.9 1 1.8 1.5 3 6.8 3.2 14.1 4.9 21.7 4.9 7.8 0 15.4-1.8 22.4-5.2.5-1.1 1-2.1 1.5-2.9 1.4-2.7 2.3-4.5 2.8-7.8-1 .4-2 .9-3 1.3-.1 0-.2.1-.3.1-1 .4-1.9.7-2.9 1-.1 0-.3.1-.4.1-1 .3-1.9.6-2.9.9-.1 0-.3.1-.4.1-1 .3-1.9.5-2.9.7-.2 0-.3.1-.5.1-1 .2-2 .4-2.9.5-.1 0-.3 0-.4.1-1 .2-2 .3-3 .4h-.4c-1 .1-2.1.2-3.1.2h-.2c-1.1.1-2.2.1-3.3.1-1.1 0-2.1 0-3.2-.1h-.2c-1-.1-2-.1-3-.2h-.4c-1-.1-1.9-.2-2.9-.4-.1 0-.3 0-.4-.1-1-.2-1.9-.3-2.9-.5-.2 0-.3-.1-.5-.1-.9-.2-1.9-.4-2.8-.7-.1 0-.3-.1-.4-.1-.9-.2-1.9-.5-2.8-.8-.1 0-.3-.1-.4-.1-1-.3-1.9-.6-2.8-1-.1 0-.2-.1-.3-.1-1-.4-2-.8-2.9-1.2.2 3.3 1.2 5.1 2.6 7.8zm45.3-40.8c-6.9-3.4-14.3-5.1-22.1-5.1-7.4 0-14.6 1.6-21.4 4.7-.3.7-.7 1.3-1 1.9-1.6 3.1-2.7 5.3-3.4 8.8 1-.4 1.9-.8 2.9-1.2.1 0 .1-.1.2-.1.9-.3 1.9-.7 2.8-1 .1 0 .2-.1.4-.1.9-.3 1.9-.6 2.8-.8.1 0 .3-.1.4-.1.9-.2 1.8-.5 2.8-.6.2 0 .3-.1.5-.1.9-.2 1.9-.4 2.8-.5.2 0 .3 0 .5-.1 1-.1 1.9-.3 2.9-.4h.4c1-.1 2-.2 3-.2h.3c1-.1 2.1-.1 3.1-.1 1.1 0 2.2 0 3.3.1h.3c1 .1 2 .1 3.1.2h.4c1 .1 2 .2 3 .4.2 0 .3 0 .5.1 1 .2 1.9.3 2.9.5.2 0 .3.1.5.1 1 .2 1.9.4 2.8.7.2 0 .3.1.5.1 1 .3 1.9.5 2.8.8.1 0 .3.1.4.1 1 .3 1.9.7 2.9 1 .1 0 .2.1.2.1l3 1.2c-.7-3.5-1.8-5.7-3.4-8.8-.5-.3-.8-.9-1.1-1.6zM129.3 249l2.4 3.6c.5.7 1.2 1.3 2.1 1.3 1.6 0 3-1.8 3.7-3.1l-4.6-7-3.6 5.2zm-12 .1c1.3 1.2 2.6 4.9 4.6 4.9 1.6 0 2.9-1.9 3.7-3l-4.6-7-3.7 5.1z"/><path class="st0" d="M147.3 239.9c-.1 0-.2-.1-.2-.1-.9-.4-1.9-.8-2.8-1.2-.1 0-.2-.1-.4-.1-1-.4-1.9-.7-2.9-1.1-.1 0-.2-.1-.3-.1l-3-.9c-.1 0-.2-.1-.3-.1-1-.3-2-.5-3.1-.8-.1 0-.2 0-.3-.1-1-.2-2.1-.4-3.1-.6h-.2c-1.1-.2-2.1-.3-3.2-.4h-.2l-3.3-.3h-.1c-1.1-.1-2.3-.1-3.4-.1s-2.3 0-3.4.1c-.4 0-.8.1-1.1.1-.8.1-1.5.1-2.2.2-.5 0-.9.1-1.3.2-.7.1-1.3.2-2 .3-.5.1-1 .2-1.4.3-.6.1-1.3.2-1.9.4-.5.1-1 .2-1.5.4-.6.1-1.2.3-1.8.4-.5.1-1 .3-1.5.4-.6.2-1.2.3-1.7.5s-1 .4-1.5.5c-.6.2-1.1.4-1.7.6l-1.5.6c-.5.2-.9.4-1.4.6-.3 2.4-.4 7-.4 9.4 0 1.7.1 6.6.2 8.7.1 0 .1.1.2.1.9.4 1.8.8 2.8 1.2.1 0 .2.1.4.1.9.4 1.9.7 2.8 1 .1 0 .2.1.3.1 1 .3 1.9.6 2.9.9.1 0 .2.1.3.1 1 .3 2 .5 3 .7.1 0 .2 0 .3.1 1 .2 2 .4 3.1.6h.2c1 .2 2.1.3 3.1.4h.2c1.1.1 2.2.2 3.2.3h.1c1.1.1 2.2.1 3.3.1h4.3c.3 0 .7 0 1-.1.3 0 .5 0 .8-.1.3 0 .7-.1 1-.1.3 0 .5-.1.8-.1.3 0 .6-.1.9-.1.3 0 .5-.1.8-.1.3 0 .6-.1.9-.1.3 0 .5-.1.8-.1.3-.1.6-.1.9-.2.3-.1.5-.1.8-.2.3-.1.6-.1.9-.2.3-.1.6-.1.8-.2.3-.1.6-.1.9-.2.3-.1.6-.1.8-.2.3-.1.6-.2.9-.2.3-.1.5-.2.8-.2.3-.1.6-.2.8-.3.3-.1.6-.2.8-.3.3-.1.6-.2.8-.3.3-.1.5-.2.8-.3.3-.1.6-.2.8-.3.3-.1.5-.2.8-.3.3-.1.6-.2.8-.3.3-.1.5-.2.8-.3.3-.1.6-.2.8-.4.3-.1.5-.2.8-.4l.6-.3c.1-2.1.2-6.9.2-8.3.2-2.5 0-7-.2-9.3zm-3.4 16.9c-2.7 0-4-2.3-5.3-4.2-1.6 2.3-3 4.4-6.1 4.4-2 0-3.8-1.2-4.9-2.9-.3-.5-.7-1-1-1.5-1.6 2.3-3 4.4-6.1 4.4-2.8 0-4.5-2.2-5.8-4.4-2 2.9-4.7 4.5-8.3 4.5-5.3 0-9.3-4.3-9.3-9.4 0-5.3 4.1-9.3 9.5-9.3 3.1 0 5.9 1.6 7.3 4.4-.7 0-1.8.1-2.4.3-.8-1.6-2.8-2.2-4.5-2.2-3.4 0-5.2 3.1-5.2 6.2 0 3.6 1.8 7.7 6 7.7 2.2 0 4.1-1.1 5.3-2.8l.6-.8c-1.2-1.7-3.1-2.9-5.3-2.9l-.4-.5c1.3-.3 2.7-.5 4-.5 1.3 0 2.7.2 3.8.9l4-5.7c-.7-1.2-1.5-2.6-3.1-2.8l-.4-.5c1-.2 1.9-.3 2.9-.3 2.1 0 4.1 1.3 5.5 3.5 1.1 1.7 2.3 3.4 3.4 5.2l3.6-5.1c-.7-1.2-1.5-2.6-3.1-2.8l-.4-.5c1-.2 1.9-.3 2.9-.3 2.4 0 4.3 1.6 5.5 3.5l9 14.7h-1.7zm-58.8-29.3c-14.7-13.2-21.2-25.5-25.2-33.8-19.4-40.5-17.8-88.9-1.5-124.9-19 35.7-32.6 73.1-15.4 130.7 7.8 26.3 21.9 44.7 36.9 55.9-.4-2.2-.6-4.4-.6-6.7 0-7.8 2.1-15 5.8-21.2zm65.6-35.4l-.8-.9-1-.6-.7-.2c-.3-.1-.4-.1-.5-.1 0 0-.1 0-.4.1l-.7.2-.1-.1c0 .1-.1.1-.1.2-.1.2-.3.3-.6.4l.1.2-.6.3-.2.7-.1 1 .1.7v.4c0 .1 0 .2.1.3l.5.7h.1l.3.3c.2.2.2.3.2.3l1.1.2.8-.1c.2 0 .4-.1.4-.2l.2-.3.4.1.7-.8.5-.4v-.2l-.1-.4 1.1-.7-.4-.7-.3-.4zm13.4-8.4l-.2-.6-.1-.6-.5-.7-.1-.4-.4-.2-.1-.2-.7.2v-.5l-.4-.3c-.4-.3-.7-.6-.9-.8-.7-.5-1-.7-1.1-.7l-1.1-.3h-.1c-.4.1-.7.1-.9.1-.1 0-.2 0-.3-.1v.1c-.2.2-.4.3-.6.3h-.8l-.1-.1-.3.3h-.3l-.5.2-.3.4-.7.7c-.1.1-.1.1-.1.2-.1.2-.2.3-.3.5 0 .1 0 .1-.1.1v.4l-.3.9c0 .2 0 .5.2 1.1v.4l.4.7.1.5.3.4.3.6.8.7.3.4 1.3.9c.3.2.7.3 1.2.3h.8c.6 0 .8 0 1 .2l1.2-.5-.2-.1.7-.3.5-.3.1.1h.1c.5-.2.6-.3.6-.3l.4-.4.4-.4.2-.7.5-.9v-.1l-.1-.8.2-.4zm9.5-12.7l-.2-.6-.1-.6-.5-.7-.1-.4-.4-.2-.1-.2-.7.2v-.5l-.4-.3c-.4-.3-.7-.6-.9-.8-.7-.5-1-.7-1.1-.7l-1.1-.3h-.1c-.4.1-.7.1-.8.1-.1 0-.2 0-.3-.1v.1c-.2.2-.4.3-.6.3h-.8l-.1-.1-.4.3h-.3l-.5.2-.3.4-.7.7c-.1.1-.1.1-.1.2-.1.2-.2.3-.3.5 0 .1 0 .1-.1.1v.4l-.3.9c0 .2 0 .5.2 1.1v.4l.4.7.1.5.3.4.3.6.7.7.4.5 1.3.9c.3.2.7.3 1.2.3h.8c.6 0 .8 0 1 .2l1.3-.5-.2-.1.7-.3.5-.3.1.1h.1c.4-.2.5-.3.6-.3l.4-.4.4-.4.2-.7.5-.9v-.1l-.1-.8.1-.5zM12 302.2v26.9h9.8c2.7 0 4.9-1.7 5.9-5.6h1.2v8.3h-24v-22.7c0-3.1-1.1-5.4-4.9-5.8v-1.2h12zm46.3 8.4c-2.8-4.8-5.2-6.5-9-6.5-6.8 0-9.8 5.8-9.8 10h19.6v2.5H39.5c.9 8.7 7.2 13.2 12.2 13.2 3.3 0 5.9-2.8 7.7-4.9l4.7 2.9c-2.7 1.8-6.9 4.7-14.3 4.7-10.9 0-18-6.9-18-14.7 0-7.3 6.4-16.4 19.4-16.4 6.8 0 10.3 2.2 13 4.1l-5.9 5.1zm18.4-8.4v29.7h-7.1v-22.7c0-5-2.8-5.6-4.9-5.8v-1.2h12zm33.9 0v30h-1.9l-20.3-21.7v21.4h-2.7v-24.2c-2.9-3.3-3.6-3.9-5.7-4.2v-1.2h10.5l17.4 18.9v-18.9h2.7zm23.1 7.5c-1.2-3.8-3.5-5.7-6.7-5.7s-4.5 1.8-4.5 3c0 2 2.5 3.2 6.9 5.3 4.7 2.3 10.7 5 10.7 10.8 0 2.3-1.6 9.4-11.6 9.4-8.8 0-12-5.6-13.1-7.4l6.9-2.7c1 6.5 5.4 7.6 7.7 7.6 2.8 0 5.4-1.6 5.4-4 0-2.7-2.6-3.8-6-5.4-4.7-2.1-11.5-5.1-11.5-11.1 0-4.1 3.5-8.1 10.3-8.1 5.4 0 9.2 2.1 11.8 5.3l-6.3 3zm40.6-7.5v2.6h-8.4c-12.5 0-14.2 7.1-14.2 10.8 0 7.8 5.8 14.3 11.4 14.3 5.4 0 7.6-3.8 9.4-6l3.5 2.3c-3.8 4.4-8 6.4-14.9 6.4-11.5 0-16.8-7.4-16.8-13.3 0-7 4.6-11.4 11-14.5h-5c-4.7 0-7 3.1-7.2 6H142l.5-8.7h31.8zm29 8.4c-2.8-4.8-5.2-6.5-9-6.5-6.8 0-9.8 5.8-9.8 10h19.6v2.5h-19.6c.9 8.7 7.2 13.2 12.2 13.2 3.3 0 5.9-2.8 7.7-4.9l4.7 2.9c-2.7 1.8-6.9 4.7-14.3 4.7-10.9 0-18-6.9-18-14.7 0-7.3 6.4-16.4 19.4-16.4 6.8 0 10.3 2.2 13 4.1l-5.9 5.1zm18.3 21.4H215v-21.5c0-3.5-2.7-4.2-3.8-4.5v-1.2c3.5-.1 5.8-.6 6.5-.8 6.3-1.9 7.2-2.3 10.2-2.3 8.3 0 12.8 5.6 12.8 11.4 0 5.9-4.5 11.9-12.9 11.9-3.4 0-5.3-.9-6.2-1.4v8.4zm0-12.7c1.1 1.2 3 3.6 6.2 3.6 1.8 0 6.1-1.2 6.1-8 0-6.2-3.3-11.1-8-11.1-2 0-3.3 1-4.4 1.9v13.6z"/><path class="st0" d="M248.3 338.4c-.4 0-.9-.1-1.5-.2-.8-.2-2.9-.5-5.8-3.5-4.3-4.5-6.8-8.1-9.1-11h-6.6c.9 1.1 3 4.3 5 6.9 2.9 4 4.9 6.5 7.1 7.7 1.4.7 2.7 1 5.6 1h5c.6 0 1-.1 1-.5-.1-.2-.3-.4-.7-.4zM78.7 22.3c.1-.1.3-.2.4-.2-.1 0-.2.1-.4.2zM94.2 24c.3.3.7.6 1 1-.3-.4-.6-.7-1-1zm-14.4-2.3c.2-.1.3-.1.5-.2-.1.1-.3.1-.5.2zm8.7 24.7c-.2 0-.3.1-.5.1.1 0 .3-.1.5-.1zm4.7-23.3c.2.2.5.4.7.6-.3-.2-.5-.4-.7-.6zm-2.4 22.5c-.2.1-.3.1-.5.2.2-.1.4-.2.5-.2zM77.7 23c.1-.1.2-.2.4-.2-.2 0-.3.1-.4.2zm12 23c-.2.1-.3.1-.5.2.1-.1.3-.1.5-.2zM92 22.3c.2.1.5.3.7.4-.2-.1-.4-.2-.7-.4zm-3.7-1.4c.2.1.5.1.7.2-.2-.1-.4-.2-.7-.2zm-1.3-.3c.2 0 .5.1.7.1-.2 0-.4 0-.7-.1zm-4.8.3c.2 0 .4-.1.5-.1-.2 0-.4.1-.5.1zm3.5-.4h.8-.8zm-4.7.7c.2-.1.3-.1.5-.2-.2.1-.3.2-.5.2zm8.6 0c.2.1.5.2.7.3-.2-.1-.5-.2-.7-.3zm1.2.5c.2.1.5.2.7.3-.2-.1-.4-.2-.7-.3zM91.9 45c-.1.1-.3.2-.4.2.1 0 .3-.1.4-.2zm-12.1.6c-.2-.1-.5-.2-.7-.3.3 0 .5.2.7.3zm2.5.8c-.2-.1-.5-.1-.7-.2.3.1.5.2.7.2zM93 44.3c-.1.1-.2.2-.4.2.2 0 .3-.1.4-.2zm-11.9 1.8c-.2-.1-.5-.2-.7-.3.2.1.4.2.7.3zm-4.7-2.8c-.3-.3-.7-.6-1-1l1 1zm7.8 3.4zm-.6 0c-.2 0-.5-.1-.7-.1.2 0 .5 0 .7.1zm-5-1.8c-.2-.1-.5-.3-.7-.4.3.2.5.3.7.4zm-1.1-.7c-.2-.2-.5-.4-.7-.6.2.2.5.4.7.6zm9.5 2.5h.3c-.1-.1-.2 0-.3 0zm-6.6-.9c-.2-.1-.4-.1-.5-.2.1 0 .3.1.5.2zm2.5.7c-.2 0-.4-.1-.6-.1.2.1.4.1.6.1zm-1.4-25.4c.2-.1.4-.1.7-.2-.3.1-.5.1-.7.2zm.1 25.1c-.2-.1-.4-.1-.6-.2.2.1.4.2.6.2zm4.9-25.6c.2 0 .4 0 .6.1-.3-.1-.5-.1-.6-.1zm-9.7 23zm1.2.9c-.2-.1-.3-.2-.4-.3.1.1.2.2.4.3zm-1.3-20.7c.3-.3.7-.6 1-.8-.4.2-.7.5-1 .8zM88 46.5c-.2 0-.5.1-.7.1.2 0 .4 0 .7-.1zm-7.7-25c.2-.1.4-.2.7-.3-.2.1-.4.2-.7.3zM78 22.7c.2-.2.5-.3.7-.5-.2.2-.4.4-.7.5zm1.1 22.5c-.2-.1-.3-.2-.5-.3.2.1.4.2.5.3zm.1-23.2c.2-.1.4-.2.7-.3-.3.1-.5.2-.7.3zm12.3 23.2c-.2.1-.4.2-.7.3.2 0 .5-.1.7-.3zm-5.8-24.7h-.3.3zm-1.5 26.2c-.2 0-.4 0-.6-.1.2.1.4.1.6.1zm6.1-.9c-.2.1-.4.2-.7.3.3-.1.5-.2.7-.3zm-1.1.4c-.2.1-.5.1-.7.2.2-.1.4-.1.7-.2zm3.4-1.7c-.2.2-.5.3-.7.5.3-.1.5-.3.7-.5zm1.4-1zM82.8 20.8s-.1 0 0 0c-.1 0 0 0 0 0zm9.9 2c.1.1.3.2.4.3-.1-.1-.2-.2-.4-.3zm-2.4-1.3c.2.1.4.1.5.2-.1-.1-.3-.1-.5-.2zm1.2.6c.2.1.3.2.5.3-.1-.2-.3-.2-.5-.3zm-3.7-1.4c.2 0 .4.1.6.1-.3 0-.5 0-.6-.1zm6.1 3l.3.3-.3-.3zM89 21.1c.2.1.4.1.6.2-.2-.1-.4-.2-.6-.2z"/><path class="st0" d="M84.1 44.2c-2.6-.3-5-1.5-6.7-3.5-.7-.8-1.2-1.6-1.6-2.5-.8.3-1.7.5-2.5.7.5 1.3 1.3 2.4 2.2 3.5.3.4.6.7 1 1 .1.1.2.2.4.3.2.2.5.4.7.6.1.1.3.2.4.3.2.2.4.3.7.4.2.1.3.2.5.3.2.1.5.2.7.3.2.1.4.2.5.2.2.1.5.2.7.3.2.1.4.1.6.2.2.1.5.1.7.2.2 0 .4.1.6.1.2 0 .5.1.7.1.2 0 .4 0 .6.1h.2c-.3-.9-.4-1.8-.4-2.6zm-5.8-18.5c1.4-1.3 3.2-2.1 5-2.4-.1-.9-.2-1.7-.6-2.5h-.1c-.2 0-.4.1-.5.1-.2.1-.4.1-.7.2-.2.1-.3.1-.5.2s-.4.2-.7.3c-.2.1-.3.1-.5.2s-.4.2-.7.3c-.1.1-.3.2-.4.2-.2.1-.5.3-.7.5-.1.1-.2.2-.4.2-.3.2-.7.5-1 .8-3.7 3.2-5.1 8.1-4.2 12.6.8 0 1.7-.2 2.5-.5-.6-3.7.6-7.6 3.5-10.2zm17.4 5.9c.7 3.6-.5 7.4-3.4 10-1.6 1.4-3.6 2.3-5.8 2.6 0 .9.2 1.7.5 2.5h.3c.2 0 .5-.1.7-.1.2 0 .3-.1.5-.1.2-.1.5-.1.7-.2.2-.1.3-.1.5-.2s.5-.2.7-.3c.2-.1.3-.1.5-.2s.5-.2.7-.3c.1-.1.3-.1.4-.2.2-.1.5-.3.7-.5.1-.1.2-.1.4-.2.3-.2.7-.5 1-.8 3.6-3.1 5-7.8 4.3-12.1h-.5c-.8-.2-1.5 0-2.2.1zm-9.9-8.5c2.9.1 5.6 1.4 7.5 3.6.7.8 1.3 1.7 1.7 2.7.9-.3 1.7-.4 2.6-.5-.5-1.4-1.3-2.7-2.3-3.9-.3-.4-.6-.7-1-1l-.3-.3c-.2-.2-.5-.4-.7-.6-.1-.1-.3-.2-.4-.3-.2-.2-.4-.3-.7-.4-.2-.1-.3-.2-.5-.3-.2-.1-.5-.2-.7-.3-.2-.1-.4-.2-.5-.2-.2-.1-.5-.2-.7-.3-.2-.1-.4-.1-.6-.2-.2-.1-.5-.1-.7-.2-.2 0-.4-.1-.6-.1-.2 0-.5-.1-.7-.1-.2 0-.4 0-.6-.1h-1.1c.1.7.2 1.6.3 2.5zm.3 23.6h-1.6c.2.7.4 1.3.7 2l.2.5.5-.1c.5-.1.9-.2 1.4-.3l.7-.2-.4-.7c-.2-.4-.4-.7-.5-1.1h-.2c-.4-.1-.6-.1-.8-.1z"/><path class="st0" d="M99.7 31.6v-.8c0-.5-.1-.9-.2-1.4l-.1-.5h-1.9c.3.8.6 1.7.7 2.5.2 0 .5 0 .7.1l.8.1zM86.8 46.7h.2-.2zm.2-11.4c-1.9 2.8-2.9 5.9-2.9 8.9.4 0 .8.1 1.2.1.4 0 .8 0 1.2-.1-.1-2.5.7-5.2 2.3-7.6 1.8-2.5 4.3-4.3 6.8-5-.2-.8-.4-1.6-.7-2.3-2.9.9-5.8 3-7.9 6zm-.9 11.4h-.5c.1.1.3.1.5 0zm-1.7 0h.5c-.1.1-.3 0-.5 0zm.9.1h.2-.6.4zm1.5-.1c-.2 0-.5 0-.7.1.2-.1.4-.1.7-.1z"/><path class="st0" d="M95 29.3c.3.8.6 1.5.7 2.3.7-.2 1.4-.3 2.1-.3h.5c-.2-.9-.4-1.7-.7-2.5-.9.1-1.8.3-2.6.5zM84.1 44.2c0 .9.1 1.8.3 2.6H86c.2 0 .5 0 .7-.1h.2c-.3-.8-.4-1.6-.5-2.5-.4 0-.8.1-1.2.1-.3-.1-.7-.1-1.1-.1zm-.2-23.6c.2 0 .5 0 .7-.1h.8c-.1-.5-.3-1-.6-1.5l-.2-.5-.5.1c-.5.1-.9.2-1.4.3l-.7.3.4.7c.2.3.3.6.4.9.2 0 .4-.1.6-.1.1-.1.3-.1.5-.1zM72.1 36.4c-.4 0-.8 0-1.1-.1l-.8-.1v.8c0 .5.1.9.2 1.4l.1.5h1.3c.5 0 1 0 1.5-.1-.3-.8-.6-1.6-.8-2.5-.1 0-.3.1-.4.1zm10.8-4c2-2.9 3-6.3 2.9-9.4h-.4c-.7 0-1.3.1-2 .2.2 2.6-.6 5.4-2.3 7.9-1.6 2.3-3.8 3.9-6.1 4.7.2.8.4 1.6.8 2.3 2.7-1 5.2-3 7.1-5.7zm1.7-11.9h.5-.5z"/><path class="st0" d="M83.4 20.7c.2 0 .4-.1.5-.1-.2 0-.4 0-.5.1zm0 0c-.2 0-.4.1-.6.1.2-.1.4-.1.6-.1zm1.7-.2zm-1.2.1c.2 0 .5 0 .7-.1-.2 0-.5.1-.7.1zM75 35.8c-.8.3-1.7.5-2.5.5.2.8.4 1.7.8 2.5.8-.1 1.7-.4 2.5-.7-.4-.7-.7-1.5-.8-2.3z"/><path class="st0" d="M85.8 23.1c0-.9-.1-1.7-.4-2.6h-.8c-.2 0-.5 0-.7.1-.2 0-.4 0-.5.1-.2 0-.4.1-.6.1.3.8.5 1.6.6 2.5.7-.1 1.3-.2 2-.2h.4zm88.7 19.4c0 3.2.1 3.5.1 6.6 0 0 1.7-.2 2.5-.4 21.5-4.6 44.1-16.2 34.3 26.8-5.2 19.1-34.1 64.1-57.2 87.8-22.3 22.8-32.1 32.6-39.8 44.4 2.1-.3 4.2-.5 6.3-.5 16.1 0 30 9.2 36.9 22.5 10.8-32.9 17.3-41.5 31.9-65.4 15.3-25 31.1-56 37.1-82.1 15.6-63.1-51.8-39.1-52.1-39.7zm-23.2 165.2c-.1.5-.3.8-.5 1.1-.2.2-.4.3-.7.3-.3 0-.5-.1-.9-.4l-.8-.7v-.1c-.2-.1-.3-.2-.4-.2l-.2-.2v-.1h-.1l-1-.8-.2-.5-.5-.1-.3-.3c-.2-.2-.3-.4-.3-.6v-.1l-.6-.2-.9-.7h-.3c-.3-.1-.5-.1-.7-.3l-1.5-1.3-.8-.8-.4-.3c-.1-.1-.2-.1-.3-.2l-.6.9h-.2c-.3.1-.6 0-.7-.1-.5-.4-.5-.8-.4-1l.2-1.3-.1-1.2c-.1-.4 0-.8.3-1.2l.4-.4.4-.3.7.6.6.4.3.3.4.5 1 .6.4.3h.1l.9.8v.2l.7.5.4.4.7.2.6.6.8.4.2.2.2.2v.1l.4.2.3.2.7.5.4.4.1.3h.5c.1.1.3.1.4.3l.8.7.7.4v.3c-.1.6-.1 1-.2 1.5zm5.8-2.4v.8c0 .5-.2.8-.3 1l-.4.4-.2.2h-.3c-.2.1-.3.1-.5.2l-.4.1-.2-.4c-.1-.2-.3-.7-.1-1l.1-.2.1-.3.2-.8v-1.1l-.2-.9.3-.1-.2-.5-.1-.9-.1-.5v-.3l-.1-.1-.1-.8-.2-.6c-.1-.4-.2-.6-.2-.8 0-.1-.1-.3-.1-.4 0-.1-.1-.3-.2-.7l-.1-.2c-.1-.1-.1-.3-.2-.4 0-.2-.1-.3 0-.5-.1-.2-.2-.3-.2-.4l-.4-1.2-.3-.2-.1-.2v.4l-.1.8-.6 1.4-.6.9-.3.1-.1.4-.7.4h-.1v.1l-.1.1c-.2.2-.4.3-.5.4-.1.1-.3.1-.7.1-.5.1-.9 0-1.3-.1s-.8-.3-1.4-.6l-.4-.2-.3-.3-.7-.7-.5-1.3-.1-.4-.3-.4.1-.4v-.8l-.1-.6c-.1-.3-.1-.8 0-1.4.1-.9.2-1.5.2-1.8v-1.3l.2-.2.4-.7 1-.7 1.1-.9h.4s.1-.1.3-.2c.6-.3 1-.3 1.4-.2l.5.2.8.1.9.5.3.3.3.5.6.4.3.3.5.3-.1.4c.2.2.3.4.4.6l.7 1.6v.2l.2.2.1.1v.2c0 .2.1.2.1.2 0 .1.2.3.4.6l.1.2-.1.3c.3.5.5 1 .7 1.7.1.2.1.4.2.6l.2.4-.2.2.4.3.1.8.1.7.1.4.6 2.5c.1.5.1.8.1 1v.3c.1.2.2.4.3.7l.1 1-.5.8c0 .1.1.2.1.3zm9-19.5l-.1.8.1.6-.2.1-.2.6-.6.5v.5l-1.4 1.2-.1.2h-.1l-.5.4c-.4.3-.8.5-1.2.6-.3.1-.7.2-1.1.2-.2.1-.3.1-.5.1h-.1l-.3-.1-.2.4-.4-.1h-.6l-.5-.1c-.5-.1-.9-.2-1.1-.3l-.2.1-.4-.3-.3-.1-.4-.2-.5-.2-.4-.4-.4-.2-.2-.6c-.2 0-.5 0-.6-.2-.2-.1-.4-.3-.5-.5l-.5-.6v-.4c-.2-.2-.4-.4-.5-.6l-.8-1.9-.1-.5-.1-.3.1-.1c-.2-.3-.2-.7-.2-.9v-.9c0-.4 0-.8.1-1.1l-.2-.3.3-.3.2-.2.1-1.4 1-1.6c.2-.3.5-.5.7-.6l.3-.1.2-.3h.1l.2-.3.1.1.3-.2.8-.6h.6l.2-.1h.4l.9-.2c.2 0 .4 0 .7.1.4.1.6.2.7.3h.5c.3 0 .7.2 1.2.3l.5.2v.1l1.2.7.6.7.4.2.8 1.2v.1l.7.7.4.7.5.8.4 1.8-.1.4-.1 1.1.2.8-.2.4.4-.2zm9.5-12.8l-.1.8.1.6-.2.1-.2.6-.6.5v.5l-1.4 1.2-.1.2h-.1l-.5.4c-.4.3-.8.5-1.2.6-.3.1-.7.2-1.1.2-.2.1-.3.1-.5.1h-.1l-.3-.1-.2.4-.4-.1h-.6l-.5-.1c-.6-.1-.9-.3-1.1-.3l-.2.1-.4-.3-.3-.1-.3-.2-.5-.2-.4-.4-.4-.2-.2-.6c-.2 0-.5 0-.6-.2-.2-.1-.3-.3-.5-.5l-.5-.6v-.4c-.2-.2-.4-.4-.5-.6l-.8-1.9-.1-.5-.1-.3.1-.1c-.2-.3-.2-.7-.2-.9v-.9c0-.4 0-.8.1-1.1l-.2-.3.3-.3.2-.2.1-1.5 1-1.6c.2-.3.5-.5.8-.6l.3-.2.2-.3h.1l.2-.3.1.1.3-.2.8-.6h.6l.2-.1h.4l.7-.2h.2c.2 0 .4 0 .7.1.4.1.6.2.7.3h.6c.3 0 .6.1 1.2.3l.5.2v.1l1.2.7.6.7.4.2.6.9.2.3v.1l.7.7.4.7.5.8.4 1.8-.1.4-.1 1.1.2.8-.2.4h.1z"/></svg>