<?xml version="1.0" encoding="UTF-8"?> <svg xmlns="http://www.w3.org/2000/svg" id="Layer_1" data-name="Layer 1" viewBox="0 0 265.25 391.08"><defs><style>.cls-1{fill:#1d1d1b}.cls-2{fill:#fff}.cls-3{fill:#fcbf00}</style></defs><path class="cls-1" d="M265.25 391.08V0l-9.74 1.66c-4.72.8-116.16 20.14-189.1 73.21C5.63 119.09 4.93 165 4.93 166.91v224.17z"></path><path class="cls-2" d="M254.31 381.83V11.71l-8.93 1.57C241.06 14 138.94 32.34 72.1 82.57c-55.69 41.85-56.34 85.28-56.34 87.11v212.15z"></path><path class="cls-3" d="M246.65 261.68V24.79S142.76 42.42 76.6 90.57c-53.17 38.7-53.17 78.18-53.17 78.18v162.74z"></path><path class="cls-1" d="M134.82 58.36c-20.3 8.74-40.61 19.37-58.22 32.21-53.17 38.7-53.17 78.18-53.17 78.18v162.74l111.39-34.84z"></path><path class="cls-3" d="M91.6 65.57c33.15 57.09 30.4 110.22 30.4 110.22-23.4-44.54-92.55-37.39-92.55-37.39s-5.26 19 16.09 19.81c0 0 56.81 4.64 64.11 52.14C118.68 269.25 0 338.25 0 338.25c109.28-49.49 126.89-108 126.89-108 2 10.3 4 58.47 4 58.47 3-28.58 4.3-45.18 5.3-120.59S99.65 28.66 99.65 28.66s-20.2 15.99-8.05 36.91z"></path><path class="cls-3" d="M111.05 136.85c0 5.12-4.67 9.26-10.45 9.26s-10.46-4.11-10.46-9.26 4.68-9.22 10.46-9.22 10.45 4.13 10.45 9.22z"></path><path class="cls-2" d="M183.13 56.29c-33.57 61.13-31.27 109.55-31.27 109.55 5.13-13.44 19.44-38 27.91-47.53s26.15-32.51 26.15-32.51 16.21 1.78 4.14 20.16c-26.25 39.92-42.34 51.68-44.21 97.75S196.57 279 196.57 279l-5.24 1.88c-33-25.85-44.2-59.16-44.2-59.16-.75 12.72-3.37 60.29-3.37 60.29s-6.38-30-6.73-113.82 36.69-148.38 36.69-148.38 20.94 15.49 9.41 36.48z"></path><path class="cls-2" d="M176.24 61.06l54.08 69.8s9.68 13.77 7.42 23.14-5.84 7.95-7.42 6.9-5.83-2-7.24-11.5-3.36-12.55-9.91-22.43l-40.81-61.86zm3.18 52.21c0 4.64-4.07 8.39-9.09 8.39s-9.11-3.75-9.11-8.39 4.08-8.39 9.11-8.39 9.09 3.75 9.09 8.39z"></path><path d="M146.26 298.21a11.26 11.26 0 11-11.26-11.4 11.33 11.33 0 0111.26 11.4z" stroke="#fcbf00" stroke-width=".98" fill="#fff"></path><path class="cls-1" d="M191.91 316.37a.45.45 0 01.34.21.43.43 0 010 .38l-1.91 8.21a1.28 1.28 0 01-.36.64 2 2 0 01-.67.47 33.32 33.32 0 01-6 1.84 36.67 36.67 0 01-7.3.6q-11.2 0-18.09-5.71a18.72 18.72 0 01-6.89-15.09q0-10.47 6.6-16.82t17.4-6.4a39.76 39.76 0 017.32.58 38.43 38.43 0 016.16 1.79 1.28 1.28 0 01.69.44 1.62 1.62 0 01.32.7l1.46 8.32a.6.6 0 01-.09.43.41.41 0 01-.34.22l-1.33.23a.81.81 0 01-.45-.11.79.79 0 01-.36-.34 17.64 17.64 0 00-5.34-6.74 12.34 12.34 0 00-7.53-2.57 14.55 14.55 0 00-11.54 5.18q-4.41 5.21-4.42 13.7a19.91 19.91 0 004.89 13.66 15.18 15.18 0 0011.9 5.58c3.69 0 6.6-.75 8.74-2.27a14.5 14.5 0 004.82-6.83c.12-.33.2-.5.26-.53a1.05 1.05 0 01.46 0zm7.18 8.48a2.05 2.05 0 01-1.61 1.06l-1.1.2q-.45.09-.45.48v1.22c0 .23 0 .37.18.43a1.3 1.3 0 00.76.05c2.29-.22 4.24-.32 5.9-.32s3.62.1 5.89.32a1.29 1.29 0 00.76-.05c.14-.06.21-.2.21-.43v-1.22c0-.26-.17-.42-.49-.48l-1.1-.2a2 2 0 01-1.59-1 12.35 12.35 0 01-.34-3.66v-20.66a.59.59 0 00-.16-.48 1.08 1.08 0 00-.62-.14 42.07 42.07 0 01-4.33 2.29 40.34 40.34 0 01-4.62 1.65 1.6 1.6 0 00-.62.4.41.41 0 00-.16.38v.36a.64.64 0 00.16.5 1.45 1.45 0 00.62.31 4.31 4.31 0 012.51 1.52 7.33 7.33 0 01.53 3.38v10.44a12.16 12.16 0 01-.33 3.65zm.41-38.85a4.61 4.61 0 000 6.29 4.08 4.08 0 003.05 1.26 4.17 4.17 0 003.06-1.26 4.58 4.58 0 000-6.29 4.22 4.22 0 00-3.06-1.28 4.14 4.14 0 00-3.05 1.28zm17.66 38.85a2 2 0 01-1.58 1.06l-1.11.2c-.33.06-.48.22-.48.48v1.22c0 .23.06.37.2.43a1.34 1.34 0 00.77.05c2.27-.22 4.23-.32 5.89-.32s3.59.1 5.88.32a1.29 1.29 0 00.76-.05.42.42 0 00.22-.43v-1.22c0-.26-.18-.42-.49-.48l-1.1-.2a2 2 0 01-1.59-1 12 12 0 01-.34-3.66v-38a.55.55 0 00-.18-.48 1 1 0 00-.6-.14l-4.33 1.82-4.32 1.79a2.73 2.73 0 00-.71.39.67.67 0 00-.17.46v.49a.62.62 0 00.17.46 2 2 0 00.69.37l.27.12a4.21 4.21 0 012.08 1.42 7.22 7.22 0 01.41 3.07v28.18a12 12 0 01-.34 3.65zm18.84-3.63V293a7.39 7.39 0 00-.41-3.07 4.18 4.18 0 00-2.06-1.42l-.3-.12a2 2 0 01-.68-.37.62.62 0 01-.17-.46v-.49a.67.67 0 01.17-.46 2.73 2.73 0 01.71-.39l4.32-1.79 4.35-1.82a1.12 1.12 0 01.6.14.6.6 0 01.16.48v38a12.35 12.35 0 00.34 3.66 2 2 0 001.56 1l1.13.2c.31.06.48.22.48.48v1.22c0 .23-.07.37-.19.43a1.38 1.38 0 01-.78.05c-2.29-.22-4.26-.32-5.88-.32s-3.62.1-5.89.32a1.33 1.33 0 01-.77-.05c-.14-.06-.2-.2-.2-.43v-1.22c0-.26.17-.42.49-.48l1.09-.2a2 2 0 001.59-1.06 12 12 0 00.34-3.61zM59.09 356.44a.29.29 0 01.25.17.35.35 0 01.07.29l-1.51 6.42a1.18 1.18 0 01-.28.52 1.21 1.21 0 01-.52.34 24.84 24.84 0 01-4.66 1.47 30.31 30.31 0 01-5.71.45c-5.85 0-10.55-1.47-14.13-4.46a14.63 14.63 0 01-5.37-11.79c0-5.45 1.72-9.86 5.16-13.18s8-5 13.58-5a31.09 31.09 0 015.69.45 34.45 34.45 0 014.83 1.39 1.12 1.12 0 01.53.37 1.48 1.48 0 01.26.55l1.13 6.57a.46.46 0 01-.07.33.39.39 0 01-.25.16l-1.06.17a.74.74 0 01-.35-.08.47.47 0 01-.27-.28 13.75 13.75 0 00-4.17-5.3 9.55 9.55 0 00-5.87-2 11.27 11.27 0 00-9.07 4q-3.45 4.06-3.45 10.72a15.62 15.62 0 003.82 10.7 11.8 11.8 0 009.33 4.4 11.6 11.6 0 006.78-1.82 11.22 11.22 0 003.76-5.36 1.12 1.12 0 01.2-.4h.36zm5.91 3.94v-21.62a5.38 5.38 0 00-.34-2.34 3.37 3.37 0 00-1.61-1.09l-.24-.08a1.46 1.46 0 01-.53-.29.44.44 0 01-.13-.36v-.38a.48.48 0 01.13-.34 1.52 1.52 0 01.55-.31l3.4-1.36 3.41-1.37a.85.85 0 01.48.09.43.43 0 01.13.37V348a14.26 14.26 0 012.33-1.87 9.41 9.41 0 015.22-1.84 5.54 5.54 0 015.94 6v10.05a8.16 8.16 0 00.29 2.76 1.5 1.5 0 001.23.82l.87.17c.24 0 .38.14.38.35v.93a.35.35 0 01-.16.34 1.17 1.17 0 01-.6 0c-1.78-.17-3.33-.26-4.62-.26s-2.83.09-4.62.26a1.2 1.2 0 01-.61 0 .36.36 0 01-.14-.34v-.93c0-.21.11-.32.37-.35L77 364a1.49 1.49 0 001.24-.82 8.64 8.64 0 00.27-2.76v-8.95a3.66 3.66 0 00-1-2.67 3.51 3.51 0 00-2.65-1 5.76 5.76 0 00-3.33 1.07 12.14 12.14 0 00-1.3 1.19v10.36a8.07 8.07 0 00.27 2.76 1.45 1.45 0 001.22.82l.87.17c.27 0 .39.14.39.35v.93a.35.35 0 01-.16.34 1.21 1.21 0 01-.61 0c-1.78-.17-3.32-.26-4.61-.26s-2.83.09-4.63.26a1.17 1.17 0 01-.6-.06c-.11-.05-.15-.14-.15-.31v-.93c0-.21.11-.32.38-.35l.85-.17a1.51 1.51 0 001.25-.82 8.29 8.29 0 00.3-2.77zm33.34 4.5a14.12 14.12 0 002.78-2.3v.42a2.8 2.8 0 001 2.18 3.4 3.4 0 002.41.89 4.52 4.52 0 003.16-1.17 6.43 6.43 0 001.87-3.35.39.39 0 000-.34.39.39 0 00-.24-.18l-.19-.11a.62.62 0 00-.33 0 .59.59 0 00-.25.2 2.31 2.31 0 01-.63.55 1.64 1.64 0 01-.75.19.61.61 0 01-.57-.34 2.77 2.77 0 01-.19-1.11V350q0-3.16-1.68-4.38c-1.13-.84-3.13-1.25-6-1.25l-5.07 3a8.11 8.11 0 00-2.4 1.93 3.38 3.38 0 00-.41 2.29v.48a.75.75 0 00.31.61.61.61 0 00.65 0l2.49-1.3a.56.56 0 00.27-.48 1.41 1.41 0 00-.17-.72.62.62 0 01.17-.81 3.91 3.91 0 012.74-.7 4.41 4.41 0 013 .77 3.55 3.55 0 01.86 2.73v2.2l-4.33 1.55a19.46 19.46 0 00-4.8 2.42c-1.2.87-1.8 1.67-1.8 2.39a6.52 6.52 0 001.13 3.88 3.42 3.42 0 002.82 1.57 7.67 7.67 0 004.15-1.3zm2.78-4.19a8.84 8.84 0 01-1.76 1.49 4 4 0 01-2.06.85c-.45 0-.88-.34-1.26-1a4.17 4.17 0 01-.61-2.13 2.31 2.31 0 011-1.78 12.41 12.41 0 013.35-1.66l1.29-.47zm14.11-27.31a3.24 3.24 0 00-1 2.43 3.36 3.36 0 003.38 3.36 3.38 3.38 0 003.39-3.36 3.33 3.33 0 00-1-2.43 3.29 3.29 0 00-2.4-1 3.24 3.24 0 00-2.37 1zm-.34 29.76a1.46 1.46 0 01-1.23.82l-.87.17c-.24 0-.38.14-.38.35v.93a.35.35 0 00.16.34 1.17 1.17 0 00.6 0c1.79-.17 3.33-.26 4.61-.26s2.85.09 4.65.26a1.1 1.1 0 00.58 0 .36.36 0 00.16-.34v-.93c0-.21-.13-.32-.36-.35l-.88-.17a1.52 1.52 0 01-1.25-.82 9.54 9.54 0 01-.25-2.76v-15.82a.53.53 0 00-.14-.37.85.85 0 00-.49-.1 32.62 32.62 0 01-3.4 1.74 26.44 26.44 0 01-3.61 1.27 2 2 0 00-.5.28.44.44 0 00-.13.32v.3a.57.57 0 00.13.39 1.31 1.31 0 00.5.22 3.57 3.57 0 012 1.15 5.51 5.51 0 01.41 2.62v8a9.1 9.1 0 01-.31 2.76zm14.88-2.79v-8a5.51 5.51 0 00-.41-2.62 3.49 3.49 0 00-2-1.15 1.46 1.46 0 01-.51-.22.52.52 0 01-.12-.39v-.28a.4.4 0 01.12-.32 2.38 2.38 0 01.51-.28 27.11 27.11 0 003.62-1.27 33.69 33.69 0 003.41-1.74.69.69 0 01.45.1.43.43 0 01.16.37v3.67a15.16 15.16 0 012.41-2.06 8.81 8.81 0 015-1.84 5.67 5.67 0 014.21 1.57 5.83 5.83 0 011.56 4.26v10.22a8.22 8.22 0 00.28 2.81 1.64 1.64 0 001.31.77l.92.17c.27 0 .39.14.39.35v.93c0 .17-.05.26-.15.31a1.21 1.21 0 01-.61.06c-1.81-.17-3.38-.26-4.69-.26s-2.88.09-4.7.26a1.19 1.19 0 01-.6-.06.29.29 0 01-.18-.31v-.93c0-.21.15-.32.39-.35l.88-.17a1.52 1.52 0 001.23-.82 8.74 8.74 0 00.26-2.76v-9.05a3.52 3.52 0 00-.94-2.62 3.37 3.37 0 00-2.53-.95 5.32 5.32 0 00-3.19 1.07A9.31 9.31 0 00135 350v10.36a8.44 8.44 0 00.26 2.76 1.5 1.5 0 001.24.82l.87.17c.25 0 .36.14.36.35v.93c0 .17 0 .26-.14.31a1.17 1.17 0 01-.6.06c-1.79-.17-3.34-.26-4.63-.26s-2.84.09-4.62.26a1.17 1.17 0 01-.6 0 .35.35 0 01-.17-.34v-.93c0-.21.15-.32.39-.35l.87-.17a1.47 1.47 0 001.23-.82 8.49 8.49 0 00.31-2.8zm27.91 0v-8a5.39 5.39 0 00-.41-2.62 3.49 3.49 0 00-2-1.15c-.26-.08-.44-.13-.5-.22a.53.53 0 01-.14-.39v-.28a.42.42 0 01.14-.32 1.45 1.45 0 01.5-.28 27.63 27.63 0 003.62-1.27 33.65 33.65 0 003.4-1.74.84.84 0 01.48.1.49.49 0 01.13.37v3.67a14.39 14.39 0 012.42-2.06 8.81 8.81 0 015-1.84 5.63 5.63 0 014.21 1.57 5.86 5.86 0 011.54 4.26v10.22a8.14 8.14 0 00.29 2.81 1.64 1.64 0 001.31.77l.93.17c.26 0 .39.14.39.35v.93c0 .17 0 .26-.15.31a1.19 1.19 0 01-.6.06c-1.82-.17-3.4-.26-4.71-.26s-2.88.09-4.7.26a1.33 1.33 0 01-.62-.06c-.1-.05-.14-.14-.14-.31v-.93c0-.21.11-.32.38-.35l.85-.17a1.49 1.49 0 001.25-.82 8.16 8.16 0 00.26-2.76v-9.05a3.63 3.63 0 00-.92-2.62 3.46 3.46 0 00-2.54-.95 5.42 5.42 0 00-3.2 1.07A8.75 8.75 0 00163 350v10.36a9.67 9.67 0 00.24 2.76 1.58 1.58 0 001.28.82l.86.17c.23 0 .38.14.38.35v.93a.31.31 0 01-.17.31 1.17 1.17 0 01-.6.06c-1.78-.17-3.33-.26-4.62-.26s-2.84.09-4.61.26a1.24 1.24 0 01-.62 0c-.11-.06-.15-.17-.15-.34v-.93c0-.21.12-.32.38-.35l.86-.17a1.54 1.54 0 001.25-.82 9.7 9.7 0 00.2-2.8zm27.92-26.97a3.26 3.26 0 00-1 2.43 3.4 3.4 0 003.39 3.36 3.22 3.22 0 002.41-1 3.27 3.27 0 001-2.37 3.34 3.34 0 00-1-2.43 3.28 3.28 0 00-2.41-1 3.22 3.22 0 00-2.39 1.01zm-.35 29.76a1.45 1.45 0 01-1.25.86l-.87.17c-.25 0-.38.14-.38.35v.93a.35.35 0 00.17.34 1.2 1.2 0 00.61 0c1.78-.17 3.32-.26 4.61-.26s2.83.09 4.62.26a1.15 1.15 0 00.6 0 .35.35 0 00.17-.34v-.93c0-.21-.14-.32-.38-.35l-.87-.17a1.57 1.57 0 01-1.25-.82 9 9 0 01-.27-2.76v-15.86a.42.42 0 00-.13-.37.74.74 0 00-.46-.1 33.73 33.73 0 01-3.42 1.74 25.68 25.68 0 01-3.62 1.27 2.15 2.15 0 00-.51.28.48.48 0 00-.11.32v.3a.62.62 0 00.11.39 1.38 1.38 0 00.51.22 3.42 3.42 0 012 1.15 5.33 5.33 0 01.43 2.62v8a8.68 8.68 0 01-.31 2.76zm24.34-15.05a8.45 8.45 0 011.22 4.69 4.49 4.49 0 01-.88 3.06 3.39 3.39 0 01-2.67 1 3.52 3.52 0 01-3-1.92 8.48 8.48 0 01-1.23-4.67 4.65 4.65 0 01.88-3.07 3.56 3.56 0 015.66.89zm-6.44 11.47a4.69 4.69 0 011.48-1.1 13.85 13.85 0 002.34.23 9.52 9.52 0 006.36-2.22 7 7 0 002.58-5.47 7.82 7.82 0 00-.22-1.64h2.93a.45.45 0 00.33-.15.44.44 0 00.13-.31v-2.11a.48.48 0 00-.13-.32.48.48 0 00-.33-.14h-5.2l-.12-.08a10.44 10.44 0 00-6.36-1.92 9.43 9.43 0 00-6.37 2.26 7 7 0 00-2.61 5.5 5.68 5.68 0 002.62 4.68 9 9 0 002.44 1.28l-4.81 3.53c0 2.32.58 3.91 1.74 4.75a6.45 6.45 0 003 1L197.8 370a6.16 6.16 0 002.39 5.28c1.6 1.2 4 1.77 7.17 1.77a13.31 13.31 0 008.33-2.56 7.64 7.64 0 003.39-6.28 5.16 5.16 0 00-2.4-4.27 9.87 9.87 0 00-5.9-1.73h-4.27a8.68 8.68 0 01-2.93-.34 1.18 1.18 0 01-.85-1.17 1.65 1.65 0 01.42-1.14zM203 369a4 4 0 011.57-1.46l2 .06h4.23a4.46 4.46 0 012.78.73 2.66 2.66 0 01.94 2.21 3.69 3.69 0 01-1.6 3.24 8.67 8.67 0 01-4.83 1.09 7.21 7.21 0 01-4-1.12 3.31 3.31 0 01-1.63-2.77A3.58 3.58 0 01203 369zm22.29-8.62v-21.62a5.31 5.31 0 00-.32-2.34 3.41 3.41 0 00-1.62-1.09l-.21-.08a1.43 1.43 0 01-.54-.29.42.42 0 01-.14-.36v-.38a.45.45 0 01.14-.34 1.55 1.55 0 01.54-.31l3.4-1.36 3.41-1.37a.79.79 0 01.47.09c.11.05.14.18.14.37V348a13.58 13.58 0 012.35-1.87 9.3 9.3 0 015.21-1.84 5.57 5.57 0 015.95 6v10.05a8.35 8.35 0 00.27 2.76 1.54 1.54 0 001.25.82l.85.17c.27 0 .38.14.38.35v.93a.36.36 0 01-.16.34 1.18 1.18 0 01-.6 0c-1.8-.17-3.32-.26-4.61-.26s-2.85.09-4.64.26a1.16 1.16 0 01-.59 0 .35.35 0 01-.16-.34v-.93c0-.21.13-.32.4-.35l.84-.17a1.51 1.51 0 001.25-.82 8.44 8.44 0 00.26-2.76v-8.95a3.66 3.66 0 00-1-2.67 3.54 3.54 0 00-2.65-1 5.76 5.76 0 00-3.33 1.07 12.24 12.24 0 00-1.31 1.19v10.36a8.74 8.74 0 00.26 2.76 1.51 1.51 0 001.25.82l.86.17c.26 0 .39.14.39.35v.93a.34.34 0 01-.17.34 1.2 1.2 0 01-.61 0c-1.78-.17-3.31-.26-4.6-.26s-2.85.09-4.64.26a1.11 1.11 0 01-.59-.06c-.11-.05-.15-.14-.15-.31v-.93c0-.21.13-.32.37-.35l.86-.17a1.51 1.51 0 001.25-.82 8.89 8.89 0 00.29-2.69z"></path><path d="M148.44 73.46a11.57 11.57 0 11-11.57-11.57 11.58 11.58 0 0111.57 11.57z" stroke="#1d1d1b" stroke-width=".14" fill="#fff"></path><path class="cls-1" d="M143.86 71.45a11 11 0 00-6.78-5.26 7.36 7.36 0 00-9.12 8c.2 1.31 1 3.61 4.51 4.57l1.59.42c2.91.76 5.91 1.56 6.37 2.9.24.76-.35 1.82-1 2.69a10.8 10.8 0 002.86-1 3.5 3.5 0 000-2.28c-.78-2.38-4-3.22-7.77-4.22l-1.56-.4c-1.78-.5-2.85-1.5-3.06-2.93a5.56 5.56 0 012.49-5 5.47 5.47 0 014.18-.65 9.18 9.18 0 015.51 4.35c2.07 3.42 4.4 4.17 5.84 4.25a13.26 13.26 0 00.4-2c-.72-.12-2.61-.4-4.46-3.44z"></path></svg> 