<?xml version="1.0" encoding="UTF-8"?> <svg xmlns="http://www.w3.org/2000/svg" width="177" height="61"><g fill="#712C6B"><g transform="translate(5.130435 52.285714)"><polygon points="0.307826087 0.153781513 2.61652174 0.153781513 2.61652174 6.40756303 6.61826087 6.40756303 6.61826087 8.40672269 0.307826087 8.40672269"></polygon><polygon points="8.10608696 0.153781513 10.4147826 0.153781513 10.4147826 8.40672269 8.10608696 8.40672269"></polygon><polygon points="12.4156522 0.153781513 18.9826087 0.153781513 18.9826087 2.15294118 14.6730435 2.15294118 14.6730435 3.53697479 18.5721739 3.53697479 18.5721739 5.43361345 14.6730435 5.43361345 14.6730435 8.35546218 12.3643478 8.35546218 12.3643478 0.153781513"></polygon><polygon points="20.5217391 0.153781513 27.1913043 0.153781513 27.1913043 2.10168067 22.8304348 2.10168067 22.8304348 3.38319328 26.7808696 3.38319328 26.7808696 5.17731092 22.8304348 5.17731092 22.8304348 6.51008403 27.2426087 6.51008403 27.2426087 8.45798319 20.5217391 8.45798319"></polygon><path d="M32.3730435 4.30588235C32.3730435 1.89663866 34.22 0 36.733913 0c1.6930435 0 2.7704348.71764706 3.4886957 1.69159664l-1.7443478 1.33277311c-.4617392-.56386555-1.026087-.97394958-1.7956522-.97394958-1.18 0-1.9495652.97394958-1.9495652 2.20420168 0 1.2302521.8208695 2.20420168 1.9495652 2.20420168.8721739 0 1.3852174-.41008403 1.8469565-1.02521008l1.7443478 1.2302521c-.7695652 1.07647058-1.8469565 1.84537815-3.6426087 1.84537815-2.36.0512605-4.2582608-1.74285715-4.2582608-4.20336135z"></path><polygon points="41.7104348 0.153781513 44.0191304 0.153781513 44.0191304 3.22941176 46.9434783 3.22941176 46.9434783 0.153781513 49.2521739 0.153781513 49.2521739 8.40672269 46.9434783 8.40672269 46.9434783 5.27983193 44.0191304 5.27983193 44.0191304 8.40672269 41.7104348 8.40672269"></polygon><path d="M54.0234783.0512605h2.2060869l3.54 8.30420168h-2.4626087l-.5643478-1.48655462h-3.1808696l-.5643478 1.48655462H50.586087L54.0234783.0512605zm2.0008695 5.07478992l-.9234782-2.35798319-.9234783 2.35798319h1.8469565z"></path><polygon points="61.0008696 0.153781513 63.1556522 0.153781513 66.5417391 4.51092437 66.5417391 0.153781513 68.7991304 0.153781513 68.7991304 8.40672269 66.7982609 8.40672269 63.2582609 3.89579832 63.2582609 8.40672269 61.0008696 8.40672269 61.0008696 0.153781513"></polygon><path d="M70.4921739 4.30588235C70.4921739 1.89663866 72.3904348 0 74.9043478 0c1.4365218 0 2.4626087.46134454 3.3347826 1.1789916l-1.333913 1.64033613c-.5643478-.51260504-1.18-.76890756-2.0008696-.76890756-1.18 0-2.1034782.97394958-2.1034782 2.25546218 0 1.33277311.9234782 2.30672269 2.2573913 2.30672269.5643478 0 .9747826-.10252101 1.333913-.35882353V5.22857143h-1.6417391V3.58823529h3.7965217V7.2789916c-.8721739.71764706-2.0521739 1.2815126-3.5913043 1.2815126-2.5652174 0-4.4634783-1.79411765-4.4634783-4.25462185z"></path><polygon points="80.3426087 0.153781513 82.6513043 0.153781513 82.6513043 8.40672269 80.3426087 8.40672269"></polygon><polygon points="84.6521739 0.153781513 86.8069565 0.153781513 90.1930435 4.51092437 90.1930435 0.153781513 92.4504348 0.153781513 92.4504348 8.40672269 90.4495652 8.40672269 86.9095652 3.89579832 86.9095652 8.40672269 84.6521739 8.40672269"></polygon><path d="M94.0921739 4.30588235C94.0921739 1.89663866 95.9904348 0 98.5043478 0c1.4365218 0 2.4626092.46134454 3.3347822 1.1789916l-1.333913 1.64033613c-.5643474-.51260504-1.1799996-.76890756-2.0008692-.76890756-1.18 0-2.1034782.97394958-2.1034782 2.25546218 0 1.33277311.9234782 2.30672269 2.2573913 2.30672269.5643478 0 .9747826-.10252101 1.333913-.35882353V5.22857143h-1.6417391V3.58823529h3.7965222V7.2789916c-.872174.71764706-2.052174 1.2815126-3.5913048 1.2815126-2.5652174 0-4.4634783-1.79411765-4.4634783-4.25462185z"></path><polygon points="107.636522 0.153781513 110.047826 0.153781513 111.997391 3.33193277 113.946957 0.153781513 116.358261 0.153781513 116.358261 8.40672269 114.10087 8.40672269 114.10087 3.6907563 111.997391 6.92016807 111.946087 6.92016807 109.842609 3.6907563 109.842609 8.40672269 107.585217 8.40672269 107.585217 0.153781513"></polygon><polygon points="118.35913 0.153781513 124.977391 0.153781513 124.977391 2.10168067 120.616522 2.10168067 120.616522 3.38319328 124.566957 3.38319328 124.566957 5.17731092 120.616522 5.17731092 120.616522 6.51008403 125.028696 6.51008403 125.028696 8.45798319 118.307826 8.45798319 118.307826 0.153781513"></polygon><path d="M126.721739.15378151h3.18087c2.924348 0 4.668695 1.69159664 4.668695 4.10084034 0 2.35798319-1.744347 4.15210084-4.72 4.15210084h-3.129565V.15378151zm2.308696 1.99915967v4.20336134h.923478c1.385217 0 2.308696-.76890756 2.308696-2.10168067 0-1.33277311-.923479-2.10168067-2.308696-2.10168067h-.923478z"></path><polygon points="136.315652 0.153781513 138.624348 0.153781513 138.624348 8.40672269 136.315652 8.40672269"></polygon><path d="M140.317391 4.30588235C140.317391 1.89663866 142.164348 0 144.678261 0c1.693043 0 2.770435.71764706 3.488696 1.69159664l-1.744348 1.33277311c-.461739-.56386555-1.026087-.97394958-1.795652-.97394958-1.18 0-1.949566.97394958-1.949566 2.20420168 0 1.2302521.82087 2.20420168 1.949566 2.20420168.872173 0 1.385217-.41008403 1.846956-1.02521008l1.744348 1.2302521c-.769565 1.07647058-1.846957 1.84537815-3.642609 1.84537815-2.36.0512605-4.258261-1.74285715-4.258261-4.20336135z"></path><polygon points="149.706087 0.153781513 152.014783 0.153781513 152.014783 8.40672269 149.706087 8.40672269"></polygon><polygon points="154.015652 0.153781513 156.170435 0.153781513 159.556522 4.51092437 159.556522 0.153781513 161.813913 0.153781513 161.813913 8.40672269 159.813043 8.40672269 156.273043 3.89579832 156.273043 8.40672269 154.015652 8.40672269 154.015652 0.153781513"></polygon><polygon points="163.712174 0.153781513 170.330435 0.153781513 170.330435 2.10168067 165.969565 2.10168067 165.969565 3.38319328 169.92 3.38319328 169.92 5.17731092 165.969565 5.17731092 165.969565 6.51008403 170.381739 6.51008403 170.381739 8.45798319 163.66087 8.45798319 163.66087 0.153781513"></polygon></g><path d="M92.1426087 42.187395v-1.7428572c-3.693913-.512605-3.7965217-1.6915966-3.5913044-5.1260504l2.4626087-24.0411765 13.493044 30.9613446h2.770434l14.211305-33.57563029c.205217 7.99663869.410434 15.12184869.410434 25.47647059 0 4.6134454-.666956 6.2537815-4.514782 6.3563025v1.7428572h16.87913v-1.7428572c-2.821739-.3588235-3.89913-.9739496-4.258261-2.9218487-.051304-.3588235-.923478-10.1495799-.923478-28.55210086 0-4.40840336.666957-5.99747899 4.258261-6.1512605V1.12773109h-12.569565L107.585217 31.6277311 95.0669565 1.12773109H83.626087v1.74285715c3.4886956.102521 4.2582608 1.17899159 4.2582608 4.66470588L84.6008696 37.112605c-.4617392 2.6655463-2.1034783 3.0756303-5.1304348 3.3831933v1.7428572h12.6721739v-.0512605zM31.2956522 1.07647059v1.74285714c2.3086956.10252101 3.5913043.56386555 4.3095652 1.89663866.8208696 1.64033613.8208696 6.40756301.8208696 15.83949581 0 7.2789916-.1539131 12.2-3.386087 15.6344538-2.4113043 2.5630252-5.9 3.8445378-9.9017391 3.8445378-7.3878261 0-10.6713044-4.7672269-10.6713044-13.6352941V8.81680672c0-4.25462185.5130435-5.68991596 4.5147826-5.99747899V1.07647059H.1026087v1.74285714c4.10434782.41008403 4.30956521 1.53781513 4.30956521 5.63865546V25.8352941c0 11.379832 6.56695649 17.3260504 18.16173909 17.3260504 11.492174 0 16.9817392-5.2798319 17.4434783-16.9159663.4617391-11.687395-.153913-18.55630257.7695652-20.96554627.5643478-1.53781512 1.8469565-2.10168067 4.3095652-2.25546218 1.026087-.05126051 2.4113044 0 2.4113044 0 3.7965217.0512605 4.873913 1.2302521 4.873913 4.97226891V26.5529412v-.205042 8.6117647c0 3.9983193-.7182608 5.3823529-4.5147826 5.5361344v1.7428572h16.5713044v-1.7428572c-3.7452174-.1537815-4.4121739-1.5378151-4.4121739-5.2798319v-9.8932773h2.5652173c19.2904348 0 18.726087-13.1739496 18.726087-13.1739496 0-6.86890757-4.7713043-11.17478992-14.16-11.17478992 0 0-13.8521739.10252101-15.5965217.10252101-1.7443479-.05126051-20.2652174 0-20.2652174 0zM60.026087 7.07394958c0-2.81932773 1.333913-3.89579832 4.7713043-3.89579832 5.5408696 0 8.6191304 2.92184874 8.6191304 7.89411764 0 6.3563025-4.2582608 11.3798319-12.2104347 11.3798319-.4104348 0-.8208696-.0512605-1.2313044-.0512605V7.07394958h.0513044zM160.018261 39.1117647c-9.388696 0-16.058261-6.4588235-16.058261-19.1714286 0-11.07226887 6.413043-16.09579828 15.237391-16.09579828 7.695652 0 13.287826 2.5117647 14.826957 8.30420168h1.641739V3.43445378C170.27913 1.33277311 164.943478.30756302 159.351304.30756302c-14.775652 0-24.061739 8.61176471-24.061739 21.99075628 0 12.5075631 8.619131 20.9142857 22.522609 20.9142857 7.131304 0 13.185217-2.0504201 18.828696-6.3563025l-2.616522-4.1008403c-4.258261 4.7672269-8.619131 6.3563025-14.006087 6.3563025z"></path></g></svg> 